<svg xmlns="http://www.w3.org/2000/svg" xmlns:xlink="http://www.w3.org/1999/xlink" width="2000" zoomAndPan="magnify" viewBox="0 0 1500 1499.999933" height="2000" preserveAspectRatio="xMidYMid meet" version="1.0"><defs><clipPath id="c74c5cfc22"><path d="M 462 908 L 928 908 L 928 1374 L 462 1374 Z M 462 908 " clip-rule="nonzero"/></clipPath><clipPath id="60b282e460"><path d="M 862.289062 1398.0625 L 438.027344 973.796875 L 527.121094 884.703125 L 951.386719 1308.964844 Z M 862.289062 1398.0625 " clip-rule="nonzero"/></clipPath><clipPath id="19c13b9811"><path d="M 862.289062 1398.0625 L 438.027344 973.796875 L 527.121094 884.703125 L 951.386719 1308.964844 Z M 862.289062 1398.0625 " clip-rule="nonzero"/></clipPath><clipPath id="1ce8248a93"><path d="M 438 548 L 952 548 L 952 1062 L 438 1062 Z M 438 548 " clip-rule="nonzero"/></clipPath><clipPath id="bac031f5ea"><path d="M 951.386719 637.699219 L 527.121094 1061.960938 L 438.027344 972.867188 L 862.289062 548.601562 Z M 951.386719 637.699219 " clip-rule="nonzero"/></clipPath><clipPath id="99dfc5ae3f"><path d="M 24 24 L 490 24 L 490 490 L 24 490 Z M 24 24 " clip-rule="nonzero"/></clipPath><clipPath id="2825708f48"><path d="M 513.386719 89.699219 L 89.121094 513.960938 L 0.0273438 424.867188 L 424.289062 0.601562 Z M 513.386719 89.699219 " clip-rule="nonzero"/></clipPath><clipPath id="fb43306ff6"><path d="M 0.0273438 424.867188 L 424.289062 0.601562 L 513.386719 89.699219 L 89.121094 513.960938 Z M 0.0273438 424.867188 " clip-rule="nonzero"/></clipPath><clipPath id="8f6c0a1f68"><path d="M 0.0273438 424.867188 L 424.289062 0.601562 L 513.386719 89.699219 L 89.121094 513.960938 Z M 0.0273438 424.867188 " clip-rule="nonzero"/></clipPath><clipPath id="c3898ed3fc"><rect x="0" width="514" y="0" height="514"/></clipPath><clipPath id="7a50842e6e"><path d="M 548 101 L 1062 101 L 1062 616 L 548 616 Z M 548 101 " clip-rule="nonzero"/></clipPath><clipPath id="f946487014"><path d="M 637.699219 101.925781 L 1061.960938 526.191406 L 972.867188 615.285156 L 548.601562 191.023438 Z M 637.699219 101.925781 " clip-rule="nonzero"/></clipPath><clipPath id="7f19e60f48"><path d="M 24 24 L 490 24 L 490 491 L 24 491 Z M 24 24 " clip-rule="nonzero"/></clipPath><clipPath id="73d7e9d64b"><path d="M 89.699219 0.925781 L 513.960938 425.191406 L 424.867188 514.285156 L 0.601562 90.023438 Z M 89.699219 0.925781 " clip-rule="nonzero"/></clipPath><clipPath id="7c2a17d2dd"><path d="M 0.601562 90.023438 L 424.867188 514.285156 L 513.960938 425.191406 L 89.699219 0.925781 Z M 0.601562 90.023438 " clip-rule="nonzero"/></clipPath><clipPath id="c90836a30a"><path d="M 0.601562 90.023438 L 424.867188 514.285156 L 513.960938 425.191406 L 89.699219 0.925781 Z M 0.601562 90.023438 " clip-rule="nonzero"/></clipPath><clipPath id="7a2aa3cb1c"><rect x="0" width="514" y="0" height="515"/></clipPath><clipPath id="56870caae6"><path d="M 548 438 L 1062 438 L 1062 952 L 548 952 Z M 548 438 " clip-rule="nonzero"/></clipPath><clipPath id="da02f66d44"><path d="M 548.601562 862.289062 L 972.867188 438.027344 L 1061.960938 527.121094 L 637.699219 951.386719 Z M 548.601562 862.289062 " clip-rule="nonzero"/></clipPath><clipPath id="742d8321c9"><path d="M 24 24 L 490 24 L 490 490 L 24 490 Z M 24 24 " clip-rule="nonzero"/></clipPath><clipPath id="968f7a5c41"><path d="M 0.601562 424.289062 L 424.867188 0.0273438 L 513.960938 89.121094 L 89.699219 513.386719 Z M 0.601562 424.289062 " clip-rule="nonzero"/></clipPath><clipPath id="8bc6b88427"><path d="M 424.867188 0.0273438 L 0.601562 424.289062 L 89.699219 513.386719 L 513.960938 89.121094 Z M 424.867188 0.0273438 " clip-rule="nonzero"/></clipPath><clipPath id="e3d00c929f"><path d="M 424.867188 0.0273438 L 0.601562 424.289062 L 89.699219 513.386719 L 513.960938 89.121094 Z M 424.867188 0.0273438 " clip-rule="nonzero"/></clipPath><clipPath id="d91e1bf7f2"><rect x="0" width="514" y="0" height="514"/></clipPath></defs><g clip-path="url(#c74c5cfc22)"><g clip-path="url(#60b282e460)"><g clip-path="url(#19c13b9811)"><path fill="#006ca2" d="M 821.328125 1357.023438 L 479.066406 1014.757812 C 477.730469 1013.421875 476.460938 1012.023438 475.265625 1010.5625 C 474.066406 1009.101562 472.941406 1007.585938 471.890625 1006.015625 C 470.84375 1004.445312 469.871094 1002.828125 468.980469 1001.160156 C 468.089844 999.496094 467.285156 997.789062 466.5625 996.042969 C 465.839844 994.296875 465.203125 992.519531 464.652344 990.710938 C 464.105469 988.90625 463.648438 987.074219 463.277344 985.222656 C 462.910156 983.367188 462.632812 981.503906 462.449219 979.621094 C 462.261719 977.742188 462.171875 975.855469 462.171875 973.96875 C 462.171875 972.078125 462.261719 970.195312 462.449219 968.3125 C 462.632812 966.433594 462.910156 964.566406 463.277344 962.714844 C 463.648438 960.859375 464.105469 959.03125 464.652344 957.222656 C 465.203125 955.414062 465.839844 953.636719 466.5625 951.890625 C 467.285156 950.148438 468.089844 948.441406 468.980469 946.773438 C 469.871094 945.109375 470.84375 943.492188 471.890625 941.917969 C 472.941406 940.347656 474.066406 938.832031 475.265625 937.371094 C 476.460938 935.910156 477.730469 934.515625 479.066406 933.179688 L 486.589844 925.652344 C 487.925781 924.316406 489.324219 923.050781 490.785156 921.851562 C 492.246094 920.652344 493.761719 919.53125 495.332031 918.480469 C 496.902344 917.429688 498.519531 916.460938 500.1875 915.570312 C 501.851562 914.679688 503.558594 913.871094 505.304688 913.148438 C 507.050781 912.425781 508.828125 911.789062 510.632812 911.242188 C 512.441406 910.695312 514.273438 910.234375 516.125 909.867188 C 517.980469 909.5 519.84375 909.222656 521.726562 909.035156 C 523.605469 908.851562 525.488281 908.757812 527.378906 908.757812 C 529.269531 908.757812 531.152344 908.851562 533.035156 909.035156 C 534.914062 909.222656 536.78125 909.5 538.632812 909.867188 C 540.484375 910.234375 542.316406 910.695312 544.125 911.242188 C 545.933594 911.789062 547.710938 912.425781 549.453125 913.148438 C 551.199219 913.871094 552.90625 914.679688 554.570312 915.570312 C 556.238281 916.460938 557.855469 917.429688 559.425781 918.480469 C 561 919.53125 562.515625 920.652344 563.972656 921.851562 C 565.433594 923.050781 566.832031 924.316406 568.167969 925.652344 L 910.433594 1267.917969 C 911.769531 1269.253906 913.035156 1270.652344 914.234375 1272.113281 C 915.433594 1273.574219 916.558594 1275.089844 917.605469 1276.660156 C 918.65625 1278.230469 919.628906 1279.847656 920.515625 1281.515625 C 921.40625 1283.179688 922.214844 1284.886719 922.9375 1286.632812 C 923.660156 1288.378906 924.296875 1290.15625 924.84375 1291.960938 C 925.394531 1293.769531 925.851562 1295.601562 926.21875 1297.453125 C 926.589844 1299.308594 926.867188 1301.171875 927.050781 1303.054688 C 927.238281 1304.933594 927.328125 1306.820312 927.328125 1308.707031 C 927.328125 1310.597656 927.238281 1312.480469 927.050781 1314.363281 C 926.867188 1316.242188 926.589844 1318.109375 926.21875 1319.960938 C 925.851562 1321.816406 925.394531 1323.644531 924.84375 1325.453125 C 924.296875 1327.261719 923.660156 1329.039062 922.9375 1330.78125 C 922.214844 1332.527344 921.40625 1334.234375 920.515625 1335.902344 C 919.625 1337.566406 918.65625 1339.183594 917.605469 1340.757812 C 916.558594 1342.328125 915.433594 1343.84375 914.234375 1345.304688 C 913.035156 1346.761719 911.769531 1348.160156 910.433594 1349.496094 L 902.910156 1357.023438 C 901.574219 1358.359375 900.175781 1359.625 898.714844 1360.824219 C 897.253906 1362.023438 895.738281 1363.144531 894.167969 1364.195312 C 892.597656 1365.246094 890.976562 1366.214844 889.3125 1367.105469 C 887.644531 1367.996094 885.941406 1368.804688 884.195312 1369.527344 C 882.449219 1370.25 880.671875 1370.886719 878.863281 1371.433594 C 877.058594 1371.980469 875.226562 1372.441406 873.375 1372.808594 C 871.519531 1373.175781 869.652344 1373.453125 867.773438 1373.640625 C 865.894531 1373.824219 864.007812 1373.917969 862.121094 1373.917969 C 860.230469 1373.917969 858.34375 1373.824219 856.464844 1373.640625 C 854.585938 1373.453125 852.71875 1373.175781 850.867188 1372.808594 C 849.011719 1372.441406 847.183594 1371.980469 845.375 1371.433594 C 843.566406 1370.886719 841.789062 1370.25 840.042969 1369.527344 C 838.300781 1368.804688 836.59375 1367.996094 834.925781 1367.105469 C 833.261719 1366.214844 831.640625 1365.246094 830.070312 1364.195312 C 828.5 1363.144531 826.984375 1362.023438 825.523438 1360.824219 C 824.0625 1359.625 822.664062 1358.359375 821.328125 1357.023438 Z M 821.328125 1357.023438 " fill-opacity="1" fill-rule="nonzero"/></g></g></g><g clip-path="url(#1ce8248a93)"><g clip-path="url(#bac031f5ea)"><g transform="matrix(1, 0, 0, 1, 438, 548)"><g clip-path="url(#c3898ed3fc)"><g clip-path="url(#99dfc5ae3f)"><g clip-path="url(#2825708f48)"><g clip-path="url(#fb43306ff6)"><g clip-path="url(#8f6c0a1f68)"><path fill="#006ca2" d="M 41.066406 383.90625 L 383.328125 41.640625 C 384.664062 40.304688 386.0625 39.039062 387.523438 37.839844 C 388.984375 36.640625 390.5 35.515625 392.070312 34.46875 C 393.640625 33.417969 395.261719 32.449219 396.925781 31.558594 C 398.59375 30.667969 400.300781 29.859375 402.042969 29.136719 C 403.789062 28.414062 405.566406 27.777344 407.375 27.230469 C 409.183594 26.679688 411.011719 26.222656 412.867188 25.855469 C 414.71875 25.484375 416.585938 25.210938 418.464844 25.023438 C 420.34375 24.839844 422.230469 24.746094 424.121094 24.746094 C 426.007812 24.746094 427.894531 24.839844 429.773438 25.023438 C 431.652344 25.210938 433.519531 25.484375 435.375 25.855469 C 437.226562 26.222656 439.058594 26.679688 440.863281 27.230469 C 442.671875 27.777344 444.449219 28.414062 446.195312 29.136719 C 447.941406 29.859375 449.644531 30.667969 451.3125 31.558594 C 452.976562 32.449219 454.597656 33.417969 456.167969 34.46875 C 457.738281 35.515625 459.253906 36.640625 460.714844 37.839844 C 462.175781 39.039062 463.574219 40.304688 464.910156 41.640625 L 472.433594 49.164062 C 473.769531 50.5 475.035156 51.898438 476.234375 53.359375 C 477.433594 54.820312 478.558594 56.335938 479.605469 57.90625 C 480.65625 59.476562 481.628906 61.097656 482.515625 62.761719 C 483.40625 64.429688 484.214844 66.136719 484.9375 67.878906 C 485.660156 69.625 486.296875 71.402344 486.84375 73.210938 C 487.394531 75.019531 487.851562 76.847656 488.21875 78.703125 C 488.589844 80.554688 488.867188 82.421875 489.050781 84.300781 C 489.238281 86.179688 489.328125 88.066406 489.328125 89.957031 C 489.328125 91.84375 489.238281 93.730469 489.050781 95.609375 C 488.867188 97.488281 488.589844 99.355469 488.21875 101.210938 C 487.851562 103.0625 487.394531 104.894531 486.84375 106.699219 C 486.296875 108.507812 485.660156 110.285156 484.9375 112.03125 C 484.214844 113.777344 483.40625 115.480469 482.519531 117.148438 C 481.628906 118.8125 480.65625 120.433594 479.605469 122.003906 C 478.558594 123.574219 477.433594 125.089844 476.234375 126.550781 C 475.035156 128.011719 473.769531 129.410156 472.433594 130.746094 L 130.167969 473.007812 C 128.832031 474.34375 127.433594 475.613281 125.976562 476.8125 C 124.515625 478.007812 123 479.132812 121.425781 480.183594 C 119.855469 481.234375 118.238281 482.203125 116.570312 483.09375 C 114.90625 483.984375 113.199219 484.789062 111.453125 485.515625 C 109.710938 486.238281 107.933594 486.871094 106.125 487.421875 C 104.316406 487.96875 102.484375 488.429688 100.632812 488.796875 C 98.78125 489.164062 96.914062 489.441406 95.035156 489.628906 C 93.152344 489.8125 91.269531 489.90625 89.378906 489.90625 C 87.488281 489.90625 85.605469 489.8125 83.726562 489.628906 C 81.84375 489.441406 79.980469 489.164062 78.125 488.796875 C 76.273438 488.429688 74.441406 487.96875 72.632812 487.421875 C 70.828125 486.871094 69.050781 486.238281 67.304688 485.515625 C 65.558594 484.789062 63.851562 483.984375 62.1875 483.09375 C 60.519531 482.203125 58.902344 481.234375 57.332031 480.183594 C 55.761719 479.132812 54.246094 478.007812 52.785156 476.8125 C 51.324219 475.613281 49.925781 474.34375 48.589844 473.007812 L 41.066406 465.484375 C 39.730469 464.148438 38.460938 462.75 37.265625 461.289062 C 36.066406 459.832031 34.941406 458.316406 33.890625 456.742188 C 32.84375 455.171875 31.871094 453.554688 30.980469 451.886719 C 30.089844 450.222656 29.285156 448.515625 28.5625 446.769531 C 27.839844 445.023438 27.203125 443.25 26.652344 441.441406 C 26.105469 439.632812 25.648438 437.800781 25.277344 435.949219 C 24.910156 434.097656 24.632812 432.230469 24.449219 430.351562 C 24.261719 428.46875 24.171875 426.585938 24.171875 424.695312 C 24.171875 422.804688 24.261719 420.921875 24.449219 419.042969 C 24.632812 417.160156 24.910156 415.292969 25.277344 413.441406 C 25.648438 411.589844 26.105469 409.757812 26.652344 407.949219 C 27.203125 406.140625 27.839844 404.367188 28.5625 402.621094 C 29.285156 400.875 30.089844 399.167969 30.980469 397.503906 C 31.871094 395.835938 32.84375 394.21875 33.890625 392.648438 C 34.941406 391.078125 36.066406 389.5625 37.265625 388.101562 C 38.460938 386.640625 39.730469 385.242188 41.066406 383.90625 Z M 41.066406 383.90625 " fill-opacity="1" fill-rule="nonzero"/></g></g></g></g></g></g></g></g><g clip-path="url(#7a50842e6e)"><g clip-path="url(#f946487014)"><g transform="matrix(1, 0, 0, 1, 548, 101)"><g clip-path="url(#7a2aa3cb1c)"><g clip-path="url(#7f19e60f48)"><g clip-path="url(#73d7e9d64b)"><g clip-path="url(#7c2a17d2dd)"><g clip-path="url(#c90836a30a)"><path fill="#006ca2" d="M 41.640625 130.980469 L 383.90625 473.246094 C 385.242188 474.582031 386.640625 475.847656 388.101562 477.046875 C 389.5625 478.246094 391.078125 479.371094 392.648438 480.417969 C 394.21875 481.46875 395.835938 482.441406 397.503906 483.332031 C 399.167969 484.222656 400.875 485.027344 402.621094 485.75 C 404.367188 486.472656 406.144531 487.109375 407.949219 487.65625 C 409.757812 488.207031 411.589844 488.664062 413.441406 489.03125 C 415.292969 489.402344 417.160156 489.679688 419.042969 489.863281 C 420.921875 490.050781 422.804688 490.140625 424.695312 490.140625 C 426.585938 490.140625 428.46875 490.050781 430.351562 489.863281 C 432.230469 489.679688 434.097656 489.402344 435.949219 489.03125 C 437.800781 488.664062 439.632812 488.207031 441.441406 487.65625 C 443.25 487.109375 445.027344 486.472656 446.769531 485.75 C 448.515625 485.027344 450.222656 484.222656 451.886719 483.332031 C 453.554688 482.441406 455.171875 481.46875 456.742188 480.417969 C 458.316406 479.371094 459.832031 478.246094 461.289062 477.046875 C 462.75 475.847656 464.148438 474.582031 465.484375 473.246094 L 473.007812 465.722656 C 474.34375 464.386719 475.613281 462.988281 476.8125 461.527344 C 478.011719 460.066406 479.132812 458.550781 480.183594 456.980469 C 481.234375 455.410156 482.203125 453.792969 483.09375 452.125 C 483.984375 450.457031 484.792969 448.753906 485.515625 447.007812 C 486.238281 445.261719 486.871094 443.484375 487.421875 441.675781 C 487.96875 439.871094 488.429688 438.039062 488.796875 436.1875 C 489.164062 434.332031 489.441406 432.464844 489.628906 430.585938 C 489.8125 428.707031 489.90625 426.820312 489.90625 424.933594 C 489.90625 423.042969 489.8125 421.160156 489.628906 419.277344 C 489.441406 417.398438 489.164062 415.53125 488.796875 413.679688 C 488.429688 411.824219 487.96875 409.996094 487.421875 408.1875 C 486.871094 406.378906 486.238281 404.601562 485.515625 402.855469 C 484.792969 401.113281 483.984375 399.40625 483.09375 397.738281 C 482.203125 396.074219 481.234375 394.453125 480.183594 392.882812 C 479.132812 391.3125 478.011719 389.796875 476.8125 388.335938 C 475.613281 386.875 474.34375 385.480469 473.007812 384.144531 L 130.746094 41.878906 C 129.410156 40.542969 128.011719 39.273438 126.550781 38.078125 C 125.089844 36.878906 123.574219 35.753906 122.003906 34.703125 C 120.433594 33.65625 118.816406 32.683594 117.148438 31.792969 C 115.480469 30.902344 113.777344 30.097656 112.03125 29.375 C 110.285156 28.652344 108.507812 28.015625 106.699219 27.464844 C 104.894531 26.917969 103.0625 26.460938 101.210938 26.089844 C 99.355469 25.722656 97.488281 25.445312 95.609375 25.261719 C 93.730469 25.074219 91.84375 24.984375 89.957031 24.984375 C 88.066406 24.984375 86.183594 25.074219 84.300781 25.261719 C 82.421875 25.445312 80.554688 25.722656 78.703125 26.089844 C 76.847656 26.460938 75.019531 26.917969 73.210938 27.464844 C 71.402344 28.015625 69.625 28.652344 67.878906 29.375 C 66.136719 30.097656 64.429688 30.902344 62.761719 31.792969 C 61.097656 32.683594 59.476562 33.65625 57.90625 34.703125 C 56.335938 35.753906 54.820312 36.878906 53.359375 38.078125 C 51.898438 39.273438 50.5 40.542969 49.164062 41.878906 L 41.640625 49.402344 C 40.304688 50.738281 39.039062 52.136719 37.839844 53.597656 C 36.640625 55.058594 35.519531 56.574219 34.46875 58.144531 C 33.417969 59.714844 32.449219 61.332031 31.558594 63 C 30.667969 64.664062 29.859375 66.371094 29.136719 68.117188 C 28.414062 69.863281 27.777344 71.640625 27.230469 73.445312 C 26.683594 75.253906 26.222656 77.085938 25.855469 78.9375 C 25.484375 80.792969 25.210938 82.65625 25.023438 84.539062 C 24.839844 86.417969 24.746094 88.304688 24.746094 90.191406 C 24.746094 92.082031 24.839844 93.964844 25.023438 95.847656 C 25.210938 97.726562 25.484375 99.59375 25.855469 101.445312 C 26.222656 103.300781 26.683594 105.128906 27.230469 106.9375 C 27.777344 108.746094 28.414062 110.523438 29.136719 112.265625 C 29.859375 114.011719 30.667969 115.71875 31.558594 117.382812 C 32.449219 119.050781 33.417969 120.667969 34.46875 122.242188 C 35.519531 123.8125 36.640625 125.328125 37.839844 126.789062 C 39.039062 128.246094 40.304688 129.644531 41.640625 130.980469 Z M 41.640625 130.980469 " fill-opacity="1" fill-rule="nonzero"/></g></g></g></g></g></g></g></g><g clip-path="url(#56870caae6)"><g clip-path="url(#da02f66d44)"><g transform="matrix(1, 0, 0, 1, 548, 438)"><g clip-path="url(#d91e1bf7f2)"><g clip-path="url(#742d8321c9)"><g clip-path="url(#968f7a5c41)"><g clip-path="url(#8bc6b88427)"><g clip-path="url(#e3d00c929f)"><path fill="#006ca2" d="M 383.90625 41.066406 L 41.640625 383.328125 C 40.304688 384.664062 39.039062 386.0625 37.839844 387.523438 C 36.640625 388.984375 35.519531 390.5 34.46875 392.070312 C 33.417969 393.640625 32.449219 395.261719 31.558594 396.925781 C 30.667969 398.59375 29.859375 400.296875 29.136719 402.042969 C 28.414062 403.789062 27.777344 405.566406 27.230469 407.375 C 26.683594 409.183594 26.222656 411.011719 25.855469 412.867188 C 25.484375 414.71875 25.210938 416.585938 25.023438 418.464844 C 24.839844 420.34375 24.746094 422.230469 24.746094 424.121094 C 24.746094 426.007812 24.839844 427.894531 25.023438 429.773438 C 25.210938 431.652344 25.484375 433.519531 25.855469 435.375 C 26.222656 437.226562 26.683594 439.054688 27.230469 440.863281 C 27.777344 442.671875 28.414062 444.449219 29.136719 446.195312 C 29.859375 447.941406 30.667969 449.644531 31.558594 451.3125 C 32.449219 452.976562 33.417969 454.597656 34.46875 456.167969 C 35.519531 457.738281 36.640625 459.253906 37.839844 460.714844 C 39.039062 462.175781 40.304688 463.574219 41.640625 464.910156 L 49.164062 472.433594 C 50.5 473.769531 51.898438 475.035156 53.359375 476.234375 C 54.820312 477.433594 56.335938 478.558594 57.90625 479.605469 C 59.476562 480.65625 61.097656 481.625 62.761719 482.515625 C 64.429688 483.40625 66.136719 484.214844 67.878906 484.9375 C 69.625 485.660156 71.402344 486.296875 73.210938 486.84375 C 75.019531 487.394531 76.847656 487.851562 78.703125 488.21875 C 80.554688 488.589844 82.421875 488.867188 84.300781 489.050781 C 86.183594 489.234375 88.066406 489.328125 89.957031 489.328125 C 91.84375 489.328125 93.730469 489.234375 95.609375 489.050781 C 97.488281 488.867188 99.355469 488.589844 101.210938 488.21875 C 103.0625 487.851562 104.894531 487.394531 106.699219 486.84375 C 108.507812 486.296875 110.285156 485.660156 112.03125 484.9375 C 113.777344 484.214844 115.480469 483.40625 117.148438 482.515625 C 118.816406 481.625 120.433594 480.65625 122.003906 479.605469 C 123.574219 478.558594 125.089844 477.433594 126.550781 476.234375 C 128.011719 475.035156 129.410156 473.769531 130.746094 472.433594 L 473.007812 130.167969 C 474.34375 128.832031 475.613281 127.433594 476.8125 125.972656 C 478.011719 124.515625 479.132812 123 480.183594 121.425781 C 481.234375 119.855469 482.203125 118.238281 483.09375 116.570312 C 483.984375 114.90625 484.792969 113.199219 485.515625 111.453125 C 486.238281 109.707031 486.871094 107.933594 487.421875 106.125 C 487.96875 104.316406 488.429688 102.484375 488.796875 100.632812 C 489.164062 98.78125 489.441406 96.914062 489.628906 95.035156 C 489.8125 93.152344 489.90625 91.269531 489.90625 89.378906 C 489.90625 87.488281 489.8125 85.605469 489.628906 83.726562 C 489.441406 81.84375 489.164062 79.976562 488.796875 78.125 C 488.429688 76.273438 487.96875 74.441406 487.421875 72.632812 C 486.871094 70.824219 486.238281 69.050781 485.515625 67.304688 C 484.792969 65.558594 483.984375 63.851562 483.09375 62.1875 C 482.203125 60.519531 481.234375 58.902344 480.183594 57.332031 C 479.132812 55.761719 478.011719 54.246094 476.8125 52.785156 C 475.613281 51.324219 474.34375 49.925781 473.007812 48.589844 L 465.484375 41.066406 C 464.148438 39.730469 462.75 38.460938 461.289062 37.265625 C 459.832031 36.066406 458.316406 34.941406 456.742188 33.890625 C 455.171875 32.84375 453.554688 31.871094 451.886719 30.980469 C 450.222656 30.089844 448.515625 29.285156 446.769531 28.5625 C 445.027344 27.839844 443.25 27.203125 441.441406 26.652344 C 439.632812 26.105469 437.800781 25.648438 435.949219 25.277344 C 434.097656 24.910156 432.230469 24.632812 430.351562 24.449219 C 428.46875 24.261719 426.585938 24.167969 424.695312 24.167969 C 422.804688 24.167969 420.921875 24.261719 419.042969 24.449219 C 417.160156 24.632812 415.292969 24.910156 413.441406 25.277344 C 411.589844 25.648438 409.757812 26.105469 407.949219 26.652344 C 406.144531 27.203125 404.367188 27.839844 402.621094 28.5625 C 400.875 29.285156 399.167969 30.089844 397.503906 30.980469 C 395.835938 31.871094 394.21875 32.84375 392.648438 33.890625 C 391.078125 34.941406 389.5625 36.066406 388.101562 37.265625 C 386.640625 38.460938 385.242188 39.730469 383.90625 41.066406 Z M 383.90625 41.066406 " fill-opacity="1" fill-rule="nonzero"/></g></g></g></g></g></g></g></g></svg>